<svg width="36" height="22" viewBox="0 0 36 22" fill="none" xmlns="http://www.w3.org/2000/svg">
<path d="M8.09911 21.7921C8.37165 22.0668 8.81537 22.0698 9.09148 21.7979L12.5005 18.4405C13.0797 17.8615 13.2558 17.0043 13.0011 16.2591L13.7344 15.5522C14.1292 15.1709 14.649 14.9608 15.1985 14.9608H24.5461C26.2045 14.9608 27.7719 14.3242 28.9601 13.1681C29.009 13.1206 28.589 13.6153 35.3372 5.55239C36.3381 4.36861 36.1884 2.59102 35.0031 1.58934C33.8253 0.596997 32.0609 0.739544 31.0573 1.903L26.9081 6.16625C26.3841 5.52163 25.5852 5.1198 24.7219 5.1198H16.881C15.7653 4.65316 14.5814 4.41695 13.3599 4.41695C9.97506 4.41695 7.01799 5.97921 5.4308 8.91146C4.76234 8.78485 4.05735 8.98699 3.55017 9.49401L0.205166 12.8479C-0.06793 13.1217 -0.0684794 13.5647 0.204067 13.8391L8.09911 21.7921ZM13.3596 5.82265C14.4366 5.82265 15.4779 6.03936 16.4552 6.46673C16.5442 6.50573 16.6401 6.52578 16.7371 6.52578H24.7219C25.4844 6.52578 26.1284 7.14733 26.1284 7.93148C26.1284 8.70684 25.4975 9.33746 24.7219 9.33746H18.985C18.5968 9.33746 18.2819 9.65222 18.2819 10.0403C18.2819 10.4287 18.5968 10.7432 18.985 10.7432H24.7219C26.2729 10.7432 27.5345 9.48193 27.5345 7.93148C27.5345 7.80788 27.5257 7.68539 27.5098 7.56399C31.5235 3.43944 32.0895 2.85991 32.1137 2.83107C32.6148 2.23973 33.5044 2.16475 34.0962 2.66353C34.6886 3.16423 34.7636 4.05303 34.2611 4.64766L27.9543 12.1848C27.0334 13.0687 25.8242 13.5551 24.5461 13.5551H15.1985C14.2825 13.5551 13.4154 13.9053 12.7577 14.5406L12.1601 15.1171L6.65148 9.61047C7.93893 7.19595 10.3548 5.82265 13.3596 5.82265ZM4.5453 10.4875C4.77718 10.2556 5.13325 10.2139 5.41596 10.3886C5.52338 10.4539 11.5375 16.4811 11.5746 16.5308C11.7804 16.8079 11.751 17.2015 11.5101 17.4426L8.60381 20.3049L1.69483 13.3453L4.5453 10.4875Z" fill="#332208"/>
</svg>
